<svg version="1.2" xmlns="http://www.w3.org/2000/svg" viewBox="0 0 152 40" width="152" height="40">
    <!-- Josefin Sans Bold 700 Italic -->
    <!-- (O)ptics -->
    <path d="m0.4 18.8q0.8-5.7 3.3-10.5 2.5-4.8 5.7-7.6l4.3 2.4q-2.9 2.7-4.9 6.8-1.9 4-2.6 9.3-0.2 2-0.2 3.8 0 4 1 7.2 1 3.2 2.7 5.7l-4.9 1.9q-2-2.7-3.3-6.7-1.3-4-1.3-8.6 0-1.9 0.2-3.7zm29.8 12.5q-3.6 0-6.8-1.5-3.2-1.6-5.3-4.7-2-3.1-2-7.8 0-3.8 1.8-7.5 1.8-3.7 5.5-6.1 3.6-2.4 8.7-2.4 3.5 0 6.8 1.5 3.2 1.5 5.3 4.7 2 3.1 2 7.8 0 3.7-1.8 7.5-1.8 3.6-5.5 6.1-3.6 2.4-8.7 2.4zm0.1-5.6q3.4 0 5.6-1.5 2.3-1.6 3.3-3.9 1-2.3 1-4.7 0-2.3-1.1-4.3-1.1-2-3-3.2-1.9-1.2-4.3-1.2-3.4 0-5.6 1.5-2.2 1.5-3.2 3.8-0.9 2.4-0.9 4.8 0 2.3 1 4.3 1.1 2 2.9 3.2 1.9 1.2 4.3 1.2zm30.8-6.2q-0.7 5.7-3.3 10.5-2.5 4.8-5.6 7.6l-4.3-2.4q2.8-2.7 4.8-6.7 2-4.1 2.6-9.3 0.3-2.1 0.3-3.9 0-3.9-1-7.2-1-3.2-2.7-5.7l4.8-1.8q2 2.6 3.3 6.6 1.4 4 1.4 8.6 0 1.8-0.3 3.7zm17.7-6.9q2.2 0 4 1 1.9 1 3 2.8 1.1 1.8 1.1 4.2 0 2.9-1.4 5.4-1.3 2.5-3.8 4-2.5 1.5-5.8 1.5-1.2 0-2.5-0.4-1.3-0.4-2.2-1.1l-1.1 9.4h-5.5l3.3-26.3h4.8l0.1 1.5q3.6-2 6-2zm-3.1 14.2q1.7 0 2.9-0.7 1.3-0.8 1.9-2 0.7-1.3 0.7-2.7 0-1.9-1.3-3.1-1.3-1.2-3.1-1.2-1.4 0-2.5 0.6-1.1 0.7-2 2l-0.5 4.3q1.1 2.8 3.9 2.8zm18.9-21h5.6l-0.9 7.6h4.3l-0.6 4.4h-4.2l-1.6 13.2h-5.6l1.6-13.2h-2.7l0.5-4.4h2.7zm13.4 7.7h5.6l-2.2 17.5h-5.6zm0.4-6.2q0-1.2 0.9-2.1 0.9-0.9 2.3-0.9 1.1 0 2.1 0.6 0.9 0.7 0.9 2 0 1.3-0.9 2.2-0.9 0.8-2.3 0.8-1.2 0-2.1-0.6-0.9-0.6-0.9-2zm23.9 22.6q-1.2 0.7-2.8 1.2-1.7 0.4-3.3 0.4-1.9 0-4-0.7-2.1-0.7-3.7-2.6-1.6-1.9-1.6-5.1 0-2.4 1.1-4.7 1.1-2.3 3.3-3.8 2.2-1.5 5.4-1.5 4.7 0 7.5 2.8l-3.2 3.4q-1.6-1.6-3.9-1.6-1.2 0-2.3 0.6-1 0.7-1.7 1.8-0.6 1.2-0.6 2.6 0 1.8 1.3 3.1 1.3 1.2 3.4 1.2 1.6 0 2.7-0.8zm10.6 1.5q-1.7 0-3.9-0.7-2.1-0.7-3.6-2.7l2.7-2.9q1.4 1.6 2.5 2 1.1 0.4 2.2 0.4 1.1 0 1.5-0.4 0.4-0.5 0.4-1.1 0-0.6-0.6-1-0.6-0.4-2-0.9l-0.8-0.3q-2-0.8-2.9-2-0.9-1.4-0.9-3 0-1.3 0.6-2.6 0.6-1.4 2.1-2.4 1.5-1 4.1-1 2.1 0 3.8 0.5 1.8 0.5 3.3 1.7l-2.5 3.2q-1.7-1.7-3.7-1.7-1.1 0-1.5 0.4-0.5 0.5-0.5 1.1 0 0.7 0.6 1.1 0.7 0.4 2 0.9 0.7 0.2 1.1 0.4 3.6 1.5 3.6 4.5 0 1.7-0.9 3.2-0.9 1.5-2.6 2.4-1.7 0.9-4.1 0.9z"/>
</svg>
